<svg width="103" height="31" viewBox="0 0 103 31" fill="none" xmlns="http://www.w3.org/2000/svg">
<path d="M7.57031 13.7305C7.23828 13.7305 6.91732 13.7969 6.60742 13.9297C6.31966 14.0404 5.98763 14.0957 5.61133 14.0957C5.3457 14.0957 5.11328 14.0736 4.91406 14.0293C4.71484 13.985 4.61523 13.7969 4.61523 13.4648C4.61523 13.4427 4.61523 13.3984 4.61523 13.332C4.61523 13.2656 4.61523 13.2214 4.61523 13.1992C5.19076 12.9557 5.66667 12.7897 6.04297 12.7012C6.44141 12.5905 6.76237 12.4798 7.00586 12.3691C7.27148 12.2585 7.44857 12.0814 7.53711 11.8379C7.64779 11.5944 7.70312 11.196 7.70312 10.6426C7.17188 10.6426 6.62956 10.6979 6.07617 10.8086C5.54492 10.8971 5.0026 11.0078 4.44922 11.1406C3.89583 11.2734 3.34245 11.3952 2.78906 11.5059C2.25781 11.6165 1.71549 11.694 1.16211 11.7383C1.0957 11.7161 0.985026 11.6276 0.830078 11.4727C0.697266 11.3177 0.619792 11.207 0.597656 11.1406C0.575521 11.1406 0.564453 11.1296 0.564453 11.1074V11.041C0.564453 10.8639 0.741536 10.7201 1.0957 10.6094C1.47201 10.4766 1.92578 10.3548 2.45703 10.2441C3.01042 10.1113 3.60807 10.0007 4.25 9.91211C4.89193 9.80143 5.48958 9.67969 6.04297 9.54688C6.61849 9.41406 7.0944 9.27018 7.4707 9.11523C7.84701 8.96029 8.05729 8.77214 8.10156 8.55078C8.1237 8.41797 8.13477 8.19661 8.13477 7.88672C8.1569 7.55469 8.16797 7.20052 8.16797 6.82422C8.1901 6.44792 8.21224 6.04948 8.23438 5.62891C8.27865 5.20833 8.34505 4.83203 8.43359 4.5C8.52214 4.14583 8.63281 3.86914 8.76562 3.66992C8.89844 3.44857 9.07552 3.33789 9.29688 3.33789C9.31901 3.33789 9.36328 3.38216 9.42969 3.4707C9.51823 3.53711 9.5625 3.59245 9.5625 3.63672V8.18555C9.78385 8.18555 10.0384 8.18555 10.3262 8.18555C10.6361 8.16341 10.9238 8.11914 11.1895 8.05273C11.4551 7.98633 11.6764 7.88672 11.8535 7.75391C12.0527 7.59896 12.1634 7.3776 12.1855 7.08984C12.1855 6.82422 12.2077 6.45898 12.252 5.99414L12.3516 4.59961C12.3737 4.13477 12.3958 3.72526 12.418 3.37109C12.4622 3.01693 12.4844 2.81771 12.4844 2.77344C12.4844 2.64062 12.4844 2.44141 12.4844 2.17578C12.4844 1.91016 12.4954 1.64453 12.5176 1.37891C12.5618 1.11328 12.6393 0.891927 12.75 0.714844C12.8828 0.515625 13.082 0.416016 13.3477 0.416016C13.569 0.416016 13.735 0.49349 13.8457 0.648438C13.9785 0.803385 14.0671 1.0026 14.1113 1.24609C14.1556 1.46745 14.1777 1.69987 14.1777 1.94336C14.1777 2.16471 14.1777 2.3418 14.1777 2.47461V5.36328C14.1777 5.47396 14.1888 5.61784 14.2109 5.79492C14.2552 5.94987 14.2884 6.10482 14.3105 6.25977C14.3548 6.41471 14.388 6.54753 14.4102 6.6582C14.4544 6.76888 14.4766 6.82422 14.4766 6.82422H14.7754L23.4746 4.76562H23.7402C23.7845 4.78776 23.8398 4.8431 23.9062 4.93164C23.9948 4.99805 24.0391 5.05339 24.0391 5.09766L23.7402 5.36328L15.9375 7.6875C15.4505 7.82031 15.1074 7.95312 14.9082 8.08594C14.709 8.21875 14.5872 8.38477 14.543 8.58398C14.4987 8.7832 14.4987 9.02669 14.543 9.31445C14.5872 9.60221 14.6094 9.97852 14.6094 10.4434H20.5527C20.6191 10.4434 20.763 10.4987 20.9844 10.6094C21.2057 10.6979 21.3607 10.7865 21.4492 10.875V10.9414C21.4492 10.9414 21.4492 10.9525 21.4492 10.9746C21.4492 10.9967 21.4492 11.0189 21.4492 11.041C21.4492 11.041 21.4492 11.0632 21.4492 11.1074C21.4492 11.1296 21.4492 11.1406 21.4492 11.1406C20.9622 11.362 20.3757 11.4727 19.6895 11.4727C19.0033 11.4505 18.306 11.4284 17.5977 11.4062C16.9115 11.3841 16.2585 11.4062 15.6387 11.4727C15.0189 11.5169 14.5319 11.7051 14.1777 12.0371C14.1777 12.1257 14.1888 12.3027 14.2109 12.5684C14.2552 12.8118 14.2884 13.0775 14.3105 13.3652C14.3548 13.6309 14.388 13.8965 14.4102 14.1621C14.4544 14.4056 14.4766 14.5716 14.4766 14.6602C14.5208 14.9036 14.6204 15.2025 14.7754 15.5566C14.9303 15.8887 15.0964 16.2207 15.2734 16.5527C15.4505 16.8848 15.6055 17.1725 15.7383 17.416C15.8932 17.6595 15.9707 17.7923 15.9707 17.8145C15.9707 18.0801 15.9043 18.2461 15.7715 18.3125C15.6387 18.3789 15.4395 18.4121 15.1738 18.4121C14.8418 18.4121 14.5651 18.3014 14.3438 18.0801C14.1224 17.8366 13.9342 17.5378 13.7793 17.1836C13.6243 16.8073 13.5026 16.3978 13.4141 15.9551C13.3255 15.5124 13.248 15.0807 13.1816 14.6602C13.1152 14.2174 13.0488 13.819 12.9824 13.4648C12.916 13.1107 12.8385 12.834 12.75 12.6348C12.7057 12.9004 12.6504 13.2546 12.584 13.6973C12.5397 14.1178 12.4733 14.5605 12.3848 15.0254C12.2962 15.4902 12.1745 15.9661 12.0195 16.4531C11.8867 16.918 11.7207 17.3496 11.5215 17.748C11.3223 18.1243 11.0788 18.4342 10.791 18.6777C10.5254 18.8991 10.2155 19.0098 9.86133 19.0098C9.55143 19.0098 9.30794 18.888 9.13086 18.6445C8.95378 18.3789 8.8099 18.0469 8.69922 17.6484C8.61068 17.25 8.54427 16.8294 8.5 16.3867C8.45573 15.944 8.40039 15.5234 8.33398 15.125C8.26758 14.7266 8.17904 14.3945 8.06836 14.1289C7.95768 13.8633 7.79167 13.7305 7.57031 13.7305ZM9.5293 14.793C9.5293 14.8372 9.51823 15.0033 9.49609 15.291C9.49609 15.5566 9.50716 15.8444 9.5293 16.1543C9.55143 16.4421 9.60677 16.7077 9.69531 16.9512C9.78385 17.1947 9.9388 17.3164 10.1602 17.3164C10.4036 17.3164 10.6139 17.1172 10.791 16.7188C10.9902 16.2982 11.1562 15.8223 11.2891 15.291C11.4219 14.7598 11.5215 14.2396 11.5879 13.7305C11.6764 13.1992 11.7207 12.8008 11.7207 12.5352H11.1562C10.957 12.5352 10.7578 12.5573 10.5586 12.6016C10.3594 12.6458 10.1712 12.7122 9.99414 12.8008C9.81706 12.8893 9.67318 13.0221 9.5625 13.1992V13.498C9.5625 13.653 9.55143 13.819 9.5293 13.9961C9.5293 14.151 9.5293 14.306 9.5293 14.4609V14.793ZM11.8867 9.14844C11.5547 9.19271 11.2337 9.25911 10.9238 9.34766C10.6139 9.41406 10.3262 9.52474 10.0605 9.67969C9.81706 9.8125 9.61784 10.0117 9.46289 10.2773C9.30794 10.5208 9.23047 10.8307 9.23047 11.207C9.31901 11.207 9.49609 11.196 9.76172 11.1738C10.0495 11.1517 10.3483 11.1185 10.6582 11.0742C10.9902 11.0299 11.278 10.9746 11.5215 10.9082C11.765 10.8197 11.8867 10.709 11.8867 10.5762V9.14844ZM27.9212 24.3555C27.9212 23.7135 27.9876 22.9941 28.1204 22.1973C28.2753 21.4004 28.4856 20.6035 28.7512 19.8066C29.039 18.9876 29.3932 18.2018 29.8137 17.4492C30.2565 16.6966 30.7545 16.0215 31.3079 15.4238C31.8834 14.8262 32.5143 14.3503 33.2005 13.9961C33.8867 13.6419 34.6393 13.4648 35.4583 13.4648C36.1666 13.4648 36.8196 13.6309 37.4173 13.9629C38.0149 14.2728 38.5572 14.6823 39.0442 15.1914C39.5533 15.6784 39.996 16.2539 40.3723 16.918C40.7486 17.582 41.0696 18.2682 41.3352 18.9766C41.6009 19.6628 41.8001 20.349 41.9329 21.0352C42.0878 21.6992 42.1653 22.3079 42.1653 22.8613C42.1653 23.6361 42.0325 24.3555 41.7669 25.0195C41.5012 25.6836 41.136 26.2812 40.6712 26.8125C40.2285 27.3438 39.6972 27.8086 39.0774 28.207C38.4798 28.6055 37.8378 28.9486 37.1516 29.2363C36.4654 29.502 35.7571 29.7012 35.0266 29.834C34.3183 29.9668 33.61 30.0332 32.9016 30.0332C31.9498 30.0332 31.1529 29.9004 30.511 29.6348C29.8912 29.3691 29.3821 28.9928 28.9837 28.5059C28.6074 27.9967 28.3307 27.3991 28.1536 26.7129C27.9986 26.0046 27.9212 25.2188 27.9212 24.3555ZM29.0833 25.0859C29.0833 25.7057 29.1829 26.248 29.3821 26.7129C29.5813 27.1556 29.858 27.5208 30.2122 27.8086C30.5664 28.0742 30.9869 28.2734 31.4739 28.4062C31.9609 28.5169 32.5032 28.5723 33.1009 28.5723C34.0305 28.5723 34.9713 28.4727 35.9231 28.2734C36.8749 28.0521 37.7272 27.709 38.4798 27.2441C39.2324 26.7572 39.8411 26.1484 40.3059 25.418C40.7929 24.6654 41.0364 23.7578 41.0364 22.6953C41.0364 22.0312 40.9036 21.2344 40.638 20.3047C40.3945 19.375 40.0403 18.4896 39.5755 17.6484C39.1106 16.8073 38.5351 16.099 37.8489 15.5234C37.1848 14.9258 36.4433 14.627 35.6243 14.627C35.248 14.627 34.927 14.6491 34.6614 14.6934C34.4179 14.7155 34.108 14.793 33.7317 14.9258V15.0918V15.2246C33.7317 15.2467 33.7428 15.3021 33.7649 15.3906C33.8092 15.4792 33.8535 15.5788 33.8977 15.6895C33.942 15.778 33.9752 15.8665 33.9973 15.9551C34.0195 16.0436 34.0305 16.099 34.0305 16.1211C34.0305 16.3203 33.9752 16.4753 33.8645 16.5859C33.7539 16.6745 33.621 16.7409 33.4661 16.7852C33.3333 16.8294 33.1783 16.8626 33.0012 16.8848C32.8463 16.9069 32.7024 16.9401 32.5696 16.9844C31.8391 17.2943 31.2415 17.7591 30.7766 18.3789C30.3339 18.9987 29.9798 19.696 29.7141 20.4707C29.4707 21.2233 29.3046 22.0091 29.2161 22.8281C29.1276 23.6471 29.0833 24.3997 29.0833 25.0859ZM46.313 24.3555C46.313 23.7135 46.3795 22.9941 46.5123 22.1973C46.6672 21.4004 46.8775 20.6035 47.1431 19.8066C47.4309 18.9876 47.7851 18.2018 48.2056 17.4492C48.6483 16.6966 49.1464 16.0215 49.6998 15.4238C50.2753 14.8262 50.9061 14.3503 51.5923 13.9961C52.2785 13.6419 53.0311 13.4648 53.8502 13.4648C54.5585 13.4648 55.2115 13.6309 55.8091 13.9629C56.4068 14.2728 56.9491 14.6823 57.4361 15.1914C57.9452 15.6784 58.3879 16.2539 58.7642 16.918C59.1405 17.582 59.4615 18.2682 59.7271 18.9766C59.9927 19.6628 60.192 20.349 60.3248 21.0352C60.4797 21.6992 60.5572 22.3079 60.5572 22.8613C60.5572 23.6361 60.4244 24.3555 60.1587 25.0195C59.8931 25.6836 59.5279 26.2812 59.063 26.8125C58.6203 27.3438 58.0891 27.8086 57.4693 28.207C56.8716 28.6055 56.2297 28.9486 55.5435 29.2363C54.8573 29.502 54.149 29.7012 53.4185 29.834C52.7102 29.9668 52.0018 30.0332 51.2935 30.0332C50.3417 30.0332 49.5448 29.9004 48.9029 29.6348C48.2831 29.3691 47.774 28.9928 47.3755 28.5059C46.9992 27.9967 46.7226 27.3991 46.5455 26.7129C46.3905 26.0046 46.313 25.2188 46.313 24.3555ZM47.4752 25.0859C47.4752 25.7057 47.5748 26.248 47.774 26.7129C47.9732 27.1556 48.2499 27.5208 48.6041 27.8086C48.9582 28.0742 49.3788 28.2734 49.8658 28.4062C50.3528 28.5169 50.8951 28.5723 51.4927 28.5723C52.4224 28.5723 53.3632 28.4727 54.315 28.2734C55.2668 28.0521 56.119 27.709 56.8716 27.2441C57.6242 26.7572 58.233 26.1484 58.6978 25.418C59.1848 24.6654 59.4283 23.7578 59.4283 22.6953C59.4283 22.0312 59.2955 21.2344 59.0298 20.3047C58.7864 19.375 58.4322 18.4896 57.9673 17.6484C57.5025 16.8073 56.927 16.099 56.2408 15.5234C55.5767 14.9258 54.8352 14.627 54.0162 14.627C53.6399 14.627 53.3189 14.6491 53.0533 14.6934C52.8098 14.7155 52.4999 14.793 52.1236 14.9258V15.0918V15.2246C52.1236 15.2467 52.1347 15.3021 52.1568 15.3906C52.2011 15.4792 52.2453 15.5788 52.2896 15.6895C52.3339 15.778 52.3671 15.8665 52.3892 15.9551C52.4114 16.0436 52.4224 16.099 52.4224 16.1211C52.4224 16.3203 52.3671 16.4753 52.2564 16.5859C52.1457 16.6745 52.0129 16.7409 51.858 16.7852C51.7252 16.8294 51.5702 16.8626 51.3931 16.8848C51.2382 16.9069 51.0943 16.9401 50.9615 16.9844C50.231 17.2943 49.6334 17.7591 49.1685 18.3789C48.7258 18.9987 48.3716 19.696 48.106 20.4707C47.8625 21.2233 47.6965 22.0091 47.608 22.8281C47.5194 23.6471 47.4752 24.3997 47.4752 25.0859ZM75.4295 28.5723C75.4295 28.3066 75.4185 27.8971 75.3963 27.3438C75.3742 26.7682 75.3521 26.1374 75.3299 25.4512C75.3299 24.7428 75.3078 24.0013 75.2635 23.2266C75.2414 22.4297 75.2192 21.6771 75.1971 20.9688C75.1971 20.2604 75.186 19.6296 75.1639 19.0762C75.1418 18.5228 75.1307 18.1133 75.1307 17.8477C75.1307 17.6484 75.1307 17.3939 75.1307 17.084C75.1528 16.7741 75.1418 16.4863 75.0975 16.2207C75.0532 15.9551 74.9647 15.7227 74.8319 15.5234C74.6991 15.3242 74.4777 15.2246 74.1678 15.2246C73.3488 15.2246 72.5298 15.2689 71.7108 15.3574C70.9139 15.4238 70.117 15.5566 69.3202 15.7559C68.5454 15.9551 67.7928 16.2318 67.0623 16.5859C66.3319 16.918 65.6457 17.3385 65.0038 17.8477C64.9152 17.8255 64.7935 17.748 64.6385 17.6152C64.5057 17.4603 64.4282 17.3385 64.4061 17.25C64.3176 16.8958 64.4836 16.5527 64.9041 16.2207C65.3469 15.8887 65.9334 15.5788 66.6639 15.291C67.4165 15.0033 68.2466 14.7487 69.1541 14.5273C70.0617 14.306 70.936 14.1178 71.7772 13.9629C72.6183 13.7858 73.3709 13.653 74.035 13.5645C74.7212 13.4759 75.186 13.4316 75.4295 13.4316C75.6288 13.4316 75.7726 13.4538 75.8612 13.498C75.9719 13.5423 76.1157 13.6419 76.2928 13.7969H83.3651C83.3651 13.9518 83.2765 14.0846 83.0995 14.1953C82.9445 14.2839 82.7564 14.3724 82.535 14.4609C82.3136 14.5273 82.1034 14.5827 81.9041 14.627C81.7049 14.6491 81.5721 14.6602 81.5057 14.6602C81.3508 14.6823 81.063 14.7044 80.6424 14.7266C80.2219 14.7487 79.7791 14.7819 79.3143 14.8262C78.8716 14.8483 78.44 14.8704 78.0194 14.8926C77.6209 14.9147 77.3332 14.9258 77.1561 14.9258C77.0011 14.9922 76.8462 15.0697 76.6913 15.1582C76.5363 15.2467 76.4035 15.3685 76.2928 15.5234C76.315 15.6341 76.3371 15.8333 76.3592 16.1211C76.4035 16.3867 76.4367 16.6745 76.4588 16.9844C76.5031 17.2721 76.5363 17.5599 76.5584 17.8477C76.5806 18.1133 76.5916 18.3014 76.5916 18.4121C76.5916 18.5449 76.5916 18.8438 76.5916 19.3086C76.5916 19.7734 76.5916 20.3268 76.5916 20.9688C76.5916 21.5885 76.5916 22.2415 76.5916 22.9277C76.5916 23.6139 76.5916 24.2669 76.5916 24.8867C76.5916 25.5065 76.5916 26.0488 76.5916 26.5137C76.5916 26.9564 76.5916 27.2552 76.5916 27.4102C76.5916 27.4544 76.6027 27.5762 76.6248 27.7754C76.647 27.9746 76.6691 28.196 76.6913 28.4395C76.7355 28.6608 76.7687 28.8711 76.7909 29.0703C76.8351 29.2474 76.8683 29.3581 76.8905 29.4023V29.6016C76.8905 29.7786 76.8241 29.9004 76.6913 29.9668C76.5806 30.0111 76.4478 30.0332 76.2928 30.0332C76.1157 30.0332 75.9719 29.9889 75.8612 29.9004C75.7505 29.7897 75.662 29.6569 75.5956 29.502C75.5513 29.347 75.5181 29.1921 75.4959 29.0371C75.4738 28.86 75.4517 28.7051 75.4295 28.5723ZM91.4972 29.7344C91.3644 29.6237 91.1098 29.4355 90.7335 29.1699C90.3793 28.8822 90.003 28.5833 89.6046 28.2734C89.2062 27.9414 88.8299 27.6426 88.4757 27.377C88.1215 27.1113 87.878 26.9232 87.7452 26.8125C87.546 26.6576 87.38 26.5247 87.2472 26.4141C87.1365 26.2812 87.0812 26.071 87.0812 25.7832C87.4132 25.7832 87.701 25.8717 87.9445 26.0488C88.1879 26.2038 88.4204 26.3809 88.6417 26.5801C88.8852 26.7572 89.1287 26.9232 89.3722 27.0781C89.6378 27.2331 89.9366 27.3105 90.2687 27.3105C90.2687 27.0892 90.2687 26.7018 90.2687 26.1484C90.2908 25.5729 90.3019 24.9642 90.3019 24.3223C90.324 23.6803 90.3351 23.0827 90.3351 22.5293C90.3572 21.9538 90.3683 21.5443 90.3683 21.3008C90.3683 21.2122 90.3461 21.002 90.3019 20.6699C90.2797 20.3158 90.2465 19.9505 90.2023 19.5742C90.1801 19.1758 90.1469 18.8105 90.1027 18.4785C90.0805 18.1465 90.0695 17.9362 90.0695 17.8477C90.0695 17.8034 90.0805 17.6816 90.1027 17.4824C90.1248 17.2611 90.158 17.0397 90.2023 16.8184C90.2465 16.597 90.2797 16.3867 90.3019 16.1875C90.3461 15.9883 90.3683 15.8665 90.3683 15.8223V15.0918V14.3281C90.3683 14.2839 90.3461 14.151 90.3019 13.9297C90.2797 13.7083 90.2465 13.4648 90.2023 13.1992C90.158 12.9336 90.1248 12.6901 90.1027 12.4688C90.0805 12.2474 90.0695 12.1035 90.0695 12.0371C90.0695 11.9486 90.0805 11.7936 90.1027 11.5723C90.1248 11.3509 90.1469 11.1185 90.1691 10.875C90.1912 10.6315 90.2133 10.3991 90.2355 10.1777C90.2797 9.95638 90.324 9.8125 90.3683 9.74609C90.7003 9.45833 90.9549 9.28125 91.132 9.21484C91.309 9.14844 91.5636 9.11523 91.8956 9.11523C92.8253 9.11523 93.7439 9.29232 94.6515 9.64648C95.559 9.97852 96.4223 10.4434 97.2413 11.041C98.0603 11.6387 98.8019 12.3359 99.4659 13.1328C100.152 13.9297 100.739 14.7708 101.226 15.6562C101.735 16.5417 102.133 17.4603 102.421 18.4121C102.709 19.3418 102.853 20.2383 102.853 21.1016C102.853 22.0977 102.642 23.127 102.222 24.1895C101.823 25.252 101.27 26.2148 100.562 27.0781C99.8533 27.9414 99.0232 28.6497 98.0714 29.2031C97.1417 29.7565 96.1456 30.0332 95.0831 30.0332C94.7732 30.0332 94.4744 30.0111 94.1866 29.9668C93.8989 29.9225 93.6 29.8783 93.2902 29.834C93.0024 29.7897 92.7036 29.7565 92.3937 29.7344C92.1059 29.6901 91.8071 29.6901 91.4972 29.7344ZM92.3937 28.2734C92.3937 28.2956 92.4269 28.3509 92.4933 28.4395C92.5597 28.5059 92.6261 28.5501 92.6925 28.5723C92.7368 28.5944 92.8253 28.6387 92.9581 28.7051C93.1131 28.7493 93.2791 28.8047 93.4562 28.8711C93.6554 28.9375 93.8435 28.9928 94.0206 29.0371C94.1977 29.0814 94.3195 29.1146 94.3859 29.1367H94.5851C95.1385 29.1367 95.7029 29.0039 96.2784 28.7383C96.854 28.4505 97.4073 28.0853 97.9386 27.6426C98.4698 27.1999 98.9568 26.6908 99.3995 26.1152C99.8422 25.5176 100.23 24.9089 100.562 24.2891C100.894 23.6693 101.159 23.0495 101.359 22.4297C101.558 21.8099 101.657 21.2344 101.657 20.7031C101.657 20.0612 101.525 19.3639 101.259 18.6113C100.993 17.8587 100.628 17.1061 100.163 16.3535C99.7205 15.6009 99.2003 14.8815 98.6027 14.1953C98.005 13.487 97.3631 12.8672 96.6769 12.3359C96.0128 11.8047 95.3266 11.3841 94.6183 11.0742C93.9321 10.7422 93.257 10.5762 92.5929 10.5762C92.4379 10.5762 92.283 10.5872 92.128 10.6094C91.9731 10.6094 91.8292 10.6315 91.6964 10.6758C91.5636 10.7201 91.4418 10.7975 91.3312 10.9082C91.2426 11.0189 91.1984 11.1738 91.1984 11.373C91.1984 11.7493 91.1984 12.1257 91.1984 12.502C91.1984 12.8783 91.2094 13.2656 91.2316 13.6641C91.2758 14.0404 91.3312 14.4167 91.3976 14.793C91.4861 15.1471 91.6189 15.4902 91.796 15.8223L92.3937 28.2734Z" fill="black"/>
</svg>
